<svg xmlns="http://www.w3.org/2000/svg" width="21" height="21" viewBox="0 0 21 21"><g><g opacity=".76"><path fill="#22252c" d="M19.786 9.522l-2.4-1.737-.702-.496a.248.248 0 0 0-.392.202v1.56h-4.344V4.708h1.564a.248.248 0 0 0 .203-.39L10.71.105a.247.247 0 0 0-.406 0l-.782 1.108-1.737 2.4-.497.702a.247.247 0 0 0 .203.391h1.56v4.345H4.708v-1.56a.247.247 0 0 0-.39-.203l-.703.496-2.4 1.737-1.108.783a.247.247 0 0 0 0 .405l4.21 3.005a.248.248 0 0 0 .391-.203v-1.564h4.345v4.345h-1.56a.247.247 0 0 0-.204.39l.497.703 1.737 2.4.782 1.108a.246.246 0 0 0 .406 0l3.005-4.21a.248.248 0 0 0-.203-.391h-1.564v-4.345h4.344v1.564a.248.248 0 0 0 .392.203l4.21-3.005a.247.247 0 0 0 0-.405z"/></g></g></svg>