<svg xmlns="http://www.w3.org/2000/svg" width="56" height="56" viewBox="0 0 56 56"><defs><mask id="zakhb" width="2" height="2" x="-1" y="-1"><path fill="#fff" d="M0 0h56v51H0z"/><path d="M10.825.84h34.341c5.523 0 10 4.477 10 10v29.965c0 5.522-4.477 10-10 10h-34.34c-5.523 0-10-4.478-10-10V10.84c0-5.523 4.477-10 10-10z"/></mask><filter id="zakha" width="76.3" height="76" x="-10" y="-10" filterUnits="userSpaceOnUse"><feOffset dx=".3" dy="5" in="SourceGraphic" result="FeOffset1262Out"/><feGaussianBlur in="FeOffset1262Out" result="FeGaussianBlur1263Out" stdDeviation="0 0"/></filter><filter id="zakhc" width="200%" height="200%" x="-50%" y="-50%"><feGaussianBlur in="SourceGraphic" result="FeGaussianBlur1269Out" stdDeviation="0 0"/></filter><mask id="zakhd"><path fill="#fff" d="M10.825.84h34.341c5.523 0 10 4.477 10 10v29.965c0 5.522-4.477 10-10 10h-34.34c-5.523 0-10-4.478-10-10V10.84c0-5.523 4.477-10 10-10z"/></mask></defs><g><g><g filter="url(#zakha)"><path fill="none" d="M10.825.84h34.341c5.523 0 10 4.477 10 10v29.965c0 5.522-4.477 10-10 10h-34.34c-5.523 0-10-4.478-10-10V10.84c0-5.523 4.477-10 10-10z" mask="url(&quot;#zakhb&quot;)"/><path fill="#5c5c5c" fill-opacity=".55" d="M10.825.84h34.341c5.523 0 10 4.477 10 10v29.965c0 5.522-4.477 10-10 10h-34.34c-5.523 0-10-4.478-10-10V10.84c0-5.523 4.477-10 10-10z"/></g><path fill="#fff" d="M10.825.84h34.341c5.523 0 10 4.477 10 10v29.965c0 5.522-4.477 10-10 10h-34.34c-5.523 0-10-4.478-10-10V10.84c0-5.523 4.477-10 10-10z"/><path fill="#fff" d="M10.825.84h34.341c5.523 0 10 4.477 10 10v29.965c0 5.522-4.477 10-10 10h-34.34c-5.523 0-10-4.478-10-10V10.84c0-5.523 4.477-10 10-10z"/><path fill="#fff" fill-opacity=".58" d="M0 56V-5h56v61zm.825-40.16v29.965c0 5.522 4.478 10 10 10h34.341c5.523 0 10-4.478 10-10V15.84c0-5.523-4.477-10-10-10h-34.34c-5.523 0-10 4.477-10 10z" filter="url(#zakhc)" mask="url(&quot;#zakhd&quot;)"/></g></g></svg>