<svg xmlns="http://www.w3.org/2000/svg" width="213" height="57" viewBox="0 0 213 57"><defs><mask id="bt3qb" width="2" height="2" x="-1" y="-1"><path fill="#fff" d="M0 0h213v51H0z"/><path d="M15.052.86h182.135c8.284 0 15 6.716 15 15v19.965c0 8.284-6.716 15-15 15H15.052c-8.285 0-15-6.716-15-15V15.86c0-8.284 6.716-15 15-15z"/></mask><filter id="bt3qa" width="233.3" height="77" x="-10" y="-10" filterUnits="userSpaceOnUse"><feOffset dx=".3" dy="6" in="SourceGraphic" result="FeOffset1370Out"/><feGaussianBlur in="FeOffset1370Out" result="FeGaussianBlur1371Out" stdDeviation="0 0"/></filter><filter id="bt3qc" width="200%" height="200%" x="-50%" y="-50%"><feGaussianBlur in="SourceGraphic" result="FeGaussianBlur1376Out" stdDeviation="0 0"/></filter><mask id="bt3qd"><path fill="#fff" d="M15.052.86h182.135c8.284 0 15 6.716 15 15v19.965c0 8.284-6.716 15-15 15H15.052c-8.285 0-15-6.716-15-15V15.86c0-8.284 6.716-15 15-15z"/></mask></defs><g><g><g filter="url(#bt3qa)"><path fill="none" d="M15.052.86h182.135c8.284 0 15 6.716 15 15v19.965c0 8.284-6.716 15-15 15H15.052c-8.285 0-15-6.716-15-15V15.86c0-8.284 6.716-15 15-15z" mask="url(&quot;#bt3qb&quot;)"/><path fill="#165c9c" d="M15.052.86h182.135c8.284 0 15 6.716 15 15v19.965c0 8.284-6.716 15-15 15H15.052c-8.285 0-15-6.716-15-15V15.86c0-8.284 6.716-15 15-15z"/></g><path fill="#1e7cd3" d="M15.052.86h182.135c8.284 0 15 6.716 15 15v19.965c0 8.284-6.716 15-15 15H15.052c-8.285 0-15-6.716-15-15V15.86c0-8.284 6.716-15 15-15z"/><path fill="#fff" d="M0 56V-5h213v61zm.052-35.14v19.965c0 8.284 6.716 15 15 15h182.135c8.284 0 15-6.716 15-15V20.86c0-8.284-6.716-15-15-15H15.052c-8.284 0-15 6.716-15 15z" filter="url(#bt3qc)" mask="url(&quot;#bt3qd&quot;)"/></g></g></svg>