<svg xmlns="http://www.w3.org/2000/svg" width="213" height="57" viewBox="0 0 213 57"><defs><mask id="zitsb" width="2" height="2" x="-1" y="-1"><path fill="#fff" d="M0 0h213v51H0z"/><path d="M15.575.86H197.71c8.285 0 15 6.716 15 15v19.965c0 8.284-6.715 15-15 15H15.575c-8.284 0-15-6.716-15-15V15.86c0-8.284 6.716-15 15-15z"/></mask><filter id="zitsa" width="233.3" height="77" x="-10" y="-10" filterUnits="userSpaceOnUse"><feOffset dx=".3" dy="6" in="SourceGraphic" result="FeOffset1404Out"/><feGaussianBlur in="FeOffset1404Out" result="FeGaussianBlur1405Out" stdDeviation="0 0"/></filter><filter id="zitsc" width="200%" height="200%" x="-50%" y="-50%"><feGaussianBlur in="SourceGraphic" result="FeGaussianBlur1410Out" stdDeviation="0 0"/></filter><mask id="zitsd"><path fill="#fff" d="M15.575.86H197.71c8.285 0 15 6.716 15 15v19.965c0 8.284-6.715 15-15 15H15.575c-8.284 0-15-6.716-15-15V15.86c0-8.284 6.716-15 15-15z"/></mask></defs><g><g><g filter="url(#zitsa)"><path fill="none" d="M15.575.86H197.71c8.285 0 15 6.716 15 15v19.965c0 8.284-6.715 15-15 15H15.575c-8.284 0-15-6.716-15-15V15.86c0-8.284 6.716-15 15-15z" mask="url(&quot;#zitsb&quot;)"/><path fill="#632687" d="M15.575.86H197.71c8.285 0 15 6.716 15 15v19.965c0 8.284-6.715 15-15 15H15.575c-8.284 0-15-6.716-15-15V15.86c0-8.284 6.716-15 15-15z"/></g><path fill="#8f44bb" d="M15.575.86H197.71c8.285 0 15 6.716 15 15v19.965c0 8.284-6.715 15-15 15H15.575c-8.284 0-15-6.716-15-15V15.86c0-8.284 6.716-15 15-15z"/><path fill="#fff" d="M0 56V-5h213v61zm.575-35.14v19.965c0 8.284 6.716 15 15 15H197.71c8.285 0 15-6.716 15-15V20.86c0-8.284-6.715-15-15-15H15.575c-8.284 0-15 6.716-15 15z" filter="url(#zitsc)" mask="url(&quot;#zitsd&quot;)"/></g></g></svg>